<svg width="160" height="31" viewBox="0 0 160 31" fill="#4036ed" xmlns="http://www.w3.org/2000/svg"> <path fill-rule="evenodd" clip-rule="evenodd" d="M24.7898 16.2832V16.4744C25.9497 15.2518 27.5942 14.9073 29.2016 14.9073C30.2492 14.9073 30.8474 15.0605 31.3334 15.2897V10.857C31.034 10.7417 30.5858 10.6657 30.0242 10.6657C27.071 10.6657 25.4252 12.7292 24.7898 16.2832ZM115.946 11.0479C116.88 12.9202 117.741 16.5894 117.741 18.4237H118.002L121.666 11.0479H115.946ZM100.204 11.0479H94.4467L102.186 30.3848H102.56L105.439 24.2323L100.204 11.0479ZM110.637 11.0479H104.879L112.618 30.3848H112.992L115.872 24.2323L110.637 11.0479ZM9.87012 13.6078H15.0673V11.0479H9.87012V13.6078ZM86.5194 13.6078H91.7166V11.0479H86.5194V13.6078ZM53.8036 21.2903C53.8036 26.5632 56.7574 30.4996 61.0948 30.4996C63.637 30.4996 65.5438 28.9325 66.7408 26.5253V26.2961C66.1041 26.6399 65.32 26.8691 64.4967 26.8691C61.5808 26.8311 59.4496 24.2326 59.4496 20.2576C59.4496 15.0605 62.5521 11.5446 66.6279 11.5446V11.2394C65.7682 10.857 64.6468 10.6657 63.4876 10.6657C57.991 10.6657 53.8036 15.1372 53.8036 21.2903ZM42.6616 10.6657C37.165 10.6657 33.0527 14.9073 33.0527 20.7166C33.0527 26.5253 36.9406 30.4996 42.3615 30.4996C46.0264 30.4996 48.9801 28.6274 50.4009 25.302V24.9582C49.2789 25.9902 47.4093 26.5253 45.5404 26.5253C41.3152 26.5253 38.6236 23.7355 38.6236 19.1495C38.6236 15.7488 40.1188 12.1556 42.6616 10.9329V10.6657ZM132.397 10.6657C126.902 10.6657 122.825 14.9073 122.825 20.7166C122.825 26.5253 126.714 30.4996 132.136 30.4996C135.762 30.4996 138.716 28.6274 140.174 25.302V24.9582C139.053 25.9902 137.184 26.5253 135.314 26.5253C131.051 26.5253 128.397 23.7735 128.397 19.1495C128.397 15.7488 129.855 12.1556 132.397 10.9329V10.6657ZM40.3434 21.786C41.0532 22.0159 41.9136 22.1684 42.8484 22.1684C46.9614 22.1684 50.364 19.3407 50.364 15.978C50.364 13.035 47.6346 10.7037 43.671 10.6657V10.9329C44.9424 11.6212 45.2412 13.2649 45.2412 14.7167C45.2412 18.4619 42.9606 21.2903 40.3434 21.5188V21.786ZM130.079 21.786C130.788 22.0159 131.686 22.1684 132.583 22.1684C136.696 22.1684 140.136 19.3407 140.136 15.978C140.136 13.035 137.406 10.7037 133.443 10.6657V10.9329C134.714 11.6212 135.014 13.2649 135.014 14.7167C135.014 18.4619 132.732 21.2903 130.079 21.5188V21.786ZM23.9675 10.6657L18.6203 11.2767V30.1178H23.9675V10.6657ZM67.6753 11.2767V30.1178H73.0219V10.6657L67.6753 11.2767ZM12.5262 27.1757C10.0584 27.1757 8.56193 25.494 8.56193 22.7049V5.66011H8.11377L0 13.1884V13.6089H3.21601V24.3093C3.21601 28.3597 5.64662 30.5004 8.97419 30.5004C11.5164 30.5004 13.5353 29.2392 14.9561 26.9845V26.7173C14.0957 27.0224 13.3116 27.1757 12.5262 27.1757ZM89.2121 27.1757C86.7071 27.1757 85.2113 25.494 85.2113 22.7049V5.66011H84.7631L76.6866 13.1884V13.6089H79.8647V24.3093C79.8647 28.3597 82.2953 30.5004 85.6229 30.5004C88.2029 30.5004 90.2219 29.2392 91.6055 26.9845V26.7173C90.7457 27.0224 89.9975 27.1757 89.2121 27.1757ZM149.409 0.5L144.062 1.15094V30.1182H149.409V0.5ZM159.541 0.5L154.195 1.15094V30.1182H159.541V0.5Z"></path> </svg>